<svg id="Layer_1" data-name="Layer 1" xmlns="http://www.w3.org/2000/svg" viewBox="0 0 418.49 155.12">
  <title>Skift Logo</title>    
  <style> * { fill:black; } </style>
  
  <path d="M258.25,260a38.94,38.94,0,0,0-11.56-13,61.63,61.63,0,0,0-16.62-8.26q-9.4-3.1-19.72-5.58-8.26-1.86-14.56-3.41a61.71,61.71,0,0,1-10.43-3.41,17.32,17.32,0,0,1-6.3-4.44,9.76,9.76,0,0,1-2.17-6.5q0-6.19,5.78-10t15.49-3.82q10.32,0,16.52,4.54t7.23,13.22h35.72a47,47,0,0,0-5.27-20.13A41.64,41.64,0,0,0,240,185.07a55.17,55.17,0,0,0-18.17-8.36,86.5,86.5,0,0,0-22.41-2.79,95.23,95.23,0,0,0-23.13,2.68,54.61,54.61,0,0,0-18.59,8.26A40.19,40.19,0,0,0,145.3,199q-4.54,8.57-4.54,20.34,0,11.57,4.65,19.2a39.83,39.83,0,0,0,12.08,12.6A64.07,64.07,0,0,0,174.31,259q9.39,2.89,19.1,5.16Q201,266,207,267.56a52,52,0,0,1,10.12,3.61,17.45,17.45,0,0,1,6.3,5,11.71,11.71,0,0,1,2.17,7.23,12.24,12.24,0,0,1-2.07,7.12,15.88,15.88,0,0,1-5.37,4.85,25,25,0,0,1-7.54,2.68,45.65,45.65,0,0,1-8.78.83q-13.19,0-20.41-4.94l-11,29.17c1.57,0.53,3.18,1,4.85,1.47a104.4,104.4,0,0,0,26.74,3.2,85.45,85.45,0,0,0,23.85-3.2,59.37,59.37,0,0,0,19.2-9.29,43.57,43.57,0,0,0,12.8-15.07,44.07,44.07,0,0,0,4.65-20.55Q262.59,267.87,258.25,260Z" transform="translate(-140.75 -172.64)"/>

  <path d="M266.59,176.6h33.25v77.64l31.39-35.72H370l-37.17,39.65,41.51,66.08h-39L310,281.09l-10.12,10.74v32.42H266.59V176.6Z" transform="translate(-140.75 -172.64)"/>
  
  <path d="M378.39,218.52h33.66V324.25H378.39V218.52Z" transform="translate(-140.75 -172.64)"/>
  <circle cx="254.47" cy="17.59" r="17.59"/>

  <path d="M429.69,240H416.06V218.52h13.63v-7.64q0-15.9,8.67-24.57,6.81-6.61,19-8.57a97.52,97.52,0,0,1,25.81-.52V201a68,68,0,0,0-8.47.1,17,17,0,0,0-6.2,1.55,8.55,8.55,0,0,0-3.82,3.82,15.06,15.06,0,0,0-1.34,6.92v5.16h19.82V240H463.35v84.25H429.69V240Z" transform="translate(-140.75 -172.64)"/>
  
  <polygon points="393.3 67.36 412.51 67.36 412.51 45.88 393.31 45.88 393.31 12.43 360.47 12.43 360.47 45.88 346.43 45.88 346.43 67.36 360.47 67.36 360.47 151.61 393.3 151.61 377.44 109.48 393.3 67.36" />
  <circle cx="405.86" cy="109.48" r="12.64"/>
  
</svg>